<svg width="400" height="468" viewBox="0 0 400 468" fill="none" xmlns="http://www.w3.org/2000/svg">
<path d="M399 1V275.051C399 275.087 398.999 275.143 398.998 275.218C398.996 275.366 398.992 275.59 398.983 275.885C398.965 276.475 398.928 277.35 398.856 278.482C398.711 280.747 398.42 284.04 397.838 288.133C396.674 296.32 394.345 307.704 389.686 320.47C380.369 345.997 361.745 377.035 324.49 399.14C287.007 421.379 255.773 438.372 233.912 449.802C222.982 455.517 214.394 459.841 208.541 462.736C205.615 464.184 203.371 465.275 201.861 466.003C201.106 466.367 200.534 466.64 200.151 466.822C200.102 466.845 200.056 466.866 200.013 466.887C199.982 466.871 199.949 466.855 199.915 466.838C199.561 466.659 199.03 466.39 198.327 466.032C196.921 465.317 194.825 464.244 192.07 462.815C186.558 459.958 178.407 455.679 167.849 449.994C146.733 438.624 115.994 421.63 77.5051 399.137C39.2457 376.777 20.125 345.734 10.5618 320.273C5.77894 307.54 3.3875 296.204 2.19263 288.058C1.59532 283.985 1.29749 280.71 1.14868 278.459C1.0743 277.334 1.03725 276.464 1.0188 275.878C1.00958 275.585 1.00447 275.363 1.0022 275.216C1.00107 275.142 1.00052 275.087 1.00024 275.051V1H399Z" fill="white" stroke="black" stroke-width="2"/>
<mask id="path-2-inside-1_2014_144" fill="white">
<path d="M0.000244141 2.33696C0.000244141 1.4573 1.05427 1.00604 1.69067 1.61332L371.191 354.205C371.388 354.394 371.5 354.655 371.5 354.928V357.426C360.653 372.726 345.678 387.732 325 400C250.047 444.472 200.063 467.97 200 468C199.953 467.976 153.961 444.977 77.0002 400C0.000297319 355 0.000244141 275 0.000244141 275V2.33696Z"/>
</mask>
<path d="M0.000244141 2.33696C0.000244141 1.4573 1.05427 1.00604 1.69067 1.61332L371.191 354.205C371.388 354.394 371.5 354.655 371.5 354.928V357.426C360.653 372.726 345.678 387.732 325 400C250.047 444.472 200.063 467.97 200 468C199.953 467.976 153.961 444.977 77.0002 400C0.000297319 355 0.000244141 275 0.000244141 275V2.33696Z" fill="#FF0000"/>
<path d="M1.69067 1.61332L3.07139 0.166392L3.07139 0.166391L1.69067 1.61332ZM371.191 354.205L372.572 352.759L372.571 352.758L371.191 354.205ZM371.5 354.928H373.5V354.927L371.5 354.928ZM371.5 357.426L373.132 358.583L373.5 358.063V357.426H371.5ZM325 400L326.021 401.72V401.72L325 400ZM200 468L199.106 469.789L199.973 470.223L200.851 469.81L200 468ZM77.0002 400L75.9911 401.727H75.9911L77.0002 400ZM0.000244141 275H-1.99976V275H0.000244141ZM0.000244141 2.33696H2.00024C2.00024 3.21605 0.946772 3.66793 0.309954 3.06026L1.69067 1.61332L3.07139 0.166391C1.16177 -1.65585 -1.99976 -0.301454 -1.99976 2.33696H0.000244141ZM1.69067 1.61332L0.309953 3.06026L369.81 355.652L371.191 354.205L372.571 352.758L3.07139 0.166392L1.69067 1.61332ZM371.191 354.205L369.809 355.652C369.613 355.464 369.5 355.203 369.5 354.929L371.5 354.928L373.5 354.927C373.5 354.106 373.163 353.324 372.572 352.759L371.191 354.205ZM371.5 354.928H369.5V357.426H371.5H373.5V354.928H371.5ZM371.5 357.426L369.869 356.269C359.17 371.358 344.398 386.165 323.98 398.28L325 400L326.021 401.72C346.957 389.298 362.135 374.093 373.132 358.583L371.5 357.426ZM325 400L323.98 398.28C249.094 442.712 199.169 466.181 199.149 466.19L200 468L200.851 469.81C200.957 469.76 251.001 446.232 326.021 401.72L325 400ZM200 468L200.895 466.211C200.881 466.204 154.927 443.225 78.0094 398.273L77.0002 400L75.9911 401.727C152.994 446.729 199.025 469.749 199.106 469.789L200 468ZM77.0002 400L78.0094 398.273C39.9903 376.054 20.9989 345.218 11.4975 319.922C6.74439 307.267 4.36883 296.004 3.18221 287.913C2.58906 283.869 2.29352 280.621 2.14628 278.394C2.07267 277.28 2.03616 276.422 2.01805 275.846C2.009 275.559 2.00455 275.342 2.00236 275.2C2.00126 275.129 2.00073 275.076 2.00048 275.043C2.00035 275.026 2.00029 275.014 2.00027 275.007C2.00025 275.003 2.00025 275.001 2.00025 275C2.00024 274.999 2.00024 274.999 2.00024 274.999C2.00024 274.999 2.00024 275 0.000244141 275C-1.99976 275 -1.99976 275.001 -1.99975 275.003C-1.99975 275.004 -1.99975 275.006 -1.99975 275.007C-1.99974 275.011 -1.99973 275.016 -1.9997 275.022C-1.99966 275.034 -1.99957 275.052 -1.9994 275.073C-1.99907 275.117 -1.99842 275.18 -1.99717 275.262C-1.99466 275.425 -1.98971 275.663 -1.97997 275.972C-1.96048 276.591 -1.92179 277.496 -1.84501 278.657C-1.69146 280.981 -1.38544 284.334 -0.775453 288.493C0.444184 296.809 2.88113 308.358 7.75298 321.328C17.5016 347.282 37.0103 378.946 75.9911 401.727L77.0002 400ZM0.000244141 275H2.00024V2.33696H0.000244141H-1.99976V275H0.000244141Z" fill="black" mask="url(#path-2-inside-1_2014_144)"/>
<mask id="path-4-inside-2_2014_144" fill="white">
<path d="M50.1608 74.4532L7.00038 32.7737L34.7867 4.00016L77.9471 45.6797L50.1608 74.4532Z"/>
</mask>
<path d="M50.1608 74.4532L7.00038 32.7737L34.7867 4.00016L77.9471 45.6797L50.1608 74.4532Z" fill="#FF0000"/>
<path d="M34.7867 4.00016L36.176 2.56148L34.7373 1.17216L33.348 2.61084L34.7867 4.00016ZM77.9471 45.6797L79.3858 47.069L80.7751 45.6303L79.3364 44.241L77.9471 45.6797ZM7.00038 32.7737L8.43906 34.1631L36.2254 5.38947L34.7867 4.00016L33.348 2.61084L5.5617 31.3844L7.00038 32.7737ZM34.7867 4.00016L33.3974 5.43883L76.5578 47.1183L77.9471 45.6797L79.3364 44.241L36.176 2.56148L34.7867 4.00016ZM77.9471 45.6797L76.5084 44.2903L48.7221 73.0639L50.1608 74.4532L51.5994 75.8426L79.3858 47.069L77.9471 45.6797Z" fill="black" mask="url(#path-4-inside-2_2014_144)"/>
<mask id="path-6-inside-3_2014_144" fill="white">
<path d="M134.161 155.453L91.0004 113.774L118.671 85.1202L161.831 126.8L134.161 155.453Z"/>
</mask>
<path d="M134.161 155.453L91.0004 113.774L118.671 85.1202L161.831 126.8L134.161 155.453Z" fill="#FF0000"/>
<path d="M118.671 85.1202L120.06 83.6815L118.621 82.2922L117.232 83.7309L118.671 85.1202ZM161.831 126.8L163.27 128.189L164.659 126.75L163.22 125.361L161.831 126.8ZM91.0004 113.774L92.4391 115.163L120.109 86.5095L118.671 85.1202L117.232 83.7309L89.5617 112.384L91.0004 113.774ZM118.671 85.1202L117.281 86.5589L160.442 128.238L161.831 126.8L163.22 125.361L120.06 83.6815L118.671 85.1202ZM161.831 126.8L160.392 125.41L132.722 154.064L134.161 155.453L135.599 156.843L163.27 128.189L161.831 126.8Z" fill="black" mask="url(#path-6-inside-3_2014_144)"/>
<mask id="path-8-inside-4_2014_144" fill="white">
<path d="M217.587 236.012L174.427 194.332L202.048 165.729L245.209 207.409L217.587 236.012Z"/>
</mask>
<path d="M217.587 236.012L174.427 194.332L202.048 165.729L245.209 207.409L217.587 236.012Z" fill="#FF0000"/>
<path d="M202.048 165.729L203.438 164.29L201.999 162.901L200.61 164.34L202.048 165.729ZM245.209 207.409L246.647 208.798L248.037 207.359L246.598 205.97L245.209 207.409ZM174.427 194.332L175.865 195.722L203.487 167.118L202.048 165.729L200.61 164.34L172.988 192.943L174.427 194.332ZM202.048 165.729L200.659 167.168L243.819 208.847L245.209 207.409L246.598 205.97L203.438 164.29L202.048 165.729ZM245.209 207.409L243.77 206.019L216.148 234.623L217.587 236.012L219.026 237.401L246.647 208.798L245.209 207.409Z" fill="black" mask="url(#path-8-inside-4_2014_144)"/>
<mask id="path-10-inside-5_2014_144" fill="white">
<path d="M301.2 316.784L258.04 275.105L285.572 246.595L328.732 288.274L301.2 316.784Z"/>
</mask>
<path d="M301.2 316.784L258.04 275.105L285.572 246.595L328.732 288.274L301.2 316.784Z" fill="#FF0000"/>
<path d="M285.572 246.595L286.961 245.156L285.523 243.767L284.133 245.205L285.572 246.595ZM328.732 288.274L330.171 289.663L331.56 288.225L330.122 286.835L328.732 288.274ZM258.04 275.105L259.479 276.494L287.011 247.984L285.572 246.595L284.133 245.205L256.601 273.715L258.04 275.105ZM285.572 246.595L284.183 248.033L327.343 289.713L328.732 288.274L330.122 286.835L286.961 245.156L285.572 246.595ZM328.732 288.274L327.294 286.885L299.762 315.395L301.2 316.784L302.639 318.173L330.171 289.663L328.732 288.274Z" fill="black" mask="url(#path-10-inside-5_2014_144)"/>
<mask id="path-12-inside-6_2014_144" fill="white">
<path d="M382.208 339.905C376.529 350.778 369.036 361.976 359.152 372.604L341.735 355.785L369.2 327.344L382.208 339.905Z"/>
</mask>
<path d="M382.208 339.905C376.529 350.778 369.036 361.976 359.152 372.604L341.735 355.785L369.2 327.344L382.208 339.905Z" fill="#FF0000"/>
<path d="M382.208 339.905L383.981 340.831L384.673 339.506L383.597 338.467L382.208 339.905ZM359.152 372.604L357.763 374.043L359.229 375.459L360.617 373.966L359.152 372.604ZM341.735 355.785L340.297 354.396L338.907 355.835L340.346 357.224L341.735 355.785ZM369.2 327.344L370.59 325.905L369.151 324.516L367.761 325.954L369.2 327.344ZM382.208 339.905L380.435 338.979C374.83 349.711 367.437 360.759 357.688 371.243L359.152 372.604L360.617 373.966C370.635 363.193 378.228 351.844 383.981 340.831L382.208 339.905ZM359.152 372.604L360.542 371.166L343.125 354.346L341.735 355.785L340.346 357.224L357.763 374.043L359.152 372.604ZM341.735 355.785L343.174 357.174L370.639 328.733L369.2 327.344L367.761 325.954L340.297 354.396L341.735 355.785ZM369.2 327.344L367.811 328.782L380.819 341.344L382.208 339.905L383.597 338.467L370.59 325.905L369.2 327.344Z" fill="black" mask="url(#path-12-inside-6_2014_144)"/>
<path d="M346.499 353.5L360.499 368L356.999 372L342.499 357.5L346.499 353.5Z" fill="#FF0000"/>
<mask id="path-15-inside-7_2014_144" fill="white">
<path d="M76.4894 44.4374L119.65 86.1169L91.9809 114.769L48.8205 73.0893L76.4894 44.4374Z"/>
</mask>
<path d="M76.4894 44.4374L119.65 86.1169L91.9809 114.769L48.8205 73.0893L76.4894 44.4374Z" fill="white"/>
<path d="M91.9809 114.769L90.5916 116.208L92.0303 117.597L93.4196 116.158L91.9809 114.769ZM48.8205 73.0893L47.3818 71.7L45.9925 73.1387L47.4312 74.528L48.8205 73.0893ZM119.65 86.1169L118.211 84.7276L90.5422 113.38L91.9809 114.769L93.4196 116.158L121.088 87.5062L119.65 86.1169ZM91.9809 114.769L93.3702 113.33L50.2098 71.6506L48.8205 73.0893L47.4312 74.528L90.5916 116.208L91.9809 114.769ZM48.8205 73.0893L50.2592 74.4786L77.9281 45.8267L76.4894 44.4374L75.0507 43.0481L47.3818 71.7L48.8205 73.0893Z" fill="black" mask="url(#path-15-inside-7_2014_144)"/>
<mask id="path-17-inside-8_2014_144" fill="white">
<path d="M160.383 125.525L203.543 167.205L175.958 195.77L132.798 154.09L160.383 125.525Z"/>
</mask>
<path d="M160.383 125.525L203.543 167.205L175.958 195.77L132.798 154.09L160.383 125.525Z" fill="white"/>
<path d="M175.958 195.77L174.569 197.209L176.008 198.598L177.397 197.159L175.958 195.77ZM132.798 154.09L131.359 152.701L129.97 154.14L131.409 155.529L132.798 154.09ZM203.543 167.205L202.105 165.815L174.52 194.381L175.958 195.77L177.397 197.159L204.982 168.594L203.543 167.205ZM175.958 195.77L177.348 194.331L134.187 152.652L132.798 154.09L131.409 155.529L174.569 197.209L175.958 195.77ZM132.798 154.09L134.237 155.48L161.822 126.914L160.383 125.525L158.944 124.136L131.359 152.701L132.798 154.09Z" fill="black" mask="url(#path-17-inside-8_2014_144)"/>
<mask id="path-19-inside-9_2014_144" fill="white">
<path d="M243.726 206.137L286.887 247.816L259.302 276.381L216.141 234.702L243.726 206.137Z"/>
</mask>
<path d="M243.726 206.137L286.887 247.816L259.302 276.381L216.141 234.702L243.726 206.137Z" fill="white"/>
<path d="M259.302 276.381L257.912 277.82L259.351 279.209L260.74 277.771L259.302 276.381ZM216.141 234.702L214.703 233.313L213.313 234.751L214.752 236.141L216.141 234.702ZM286.887 247.816L285.448 246.427L257.863 274.992L259.302 276.381L260.74 277.771L288.325 249.205L286.887 247.816ZM259.302 276.381L260.691 274.943L217.531 233.263L216.141 234.702L214.752 236.141L257.912 277.82L259.302 276.381ZM216.141 234.702L217.58 236.091L245.165 207.526L243.726 206.137L242.288 204.747L214.703 233.313L216.141 234.702Z" fill="black" mask="url(#path-19-inside-9_2014_144)"/>
<mask id="path-21-inside-10_2014_144" fill="white">
<path d="M327.335 286.934L370.495 328.613L342.998 357.088L299.838 315.408L327.335 286.934Z"/>
</mask>
<path d="M327.335 286.934L370.495 328.613L342.998 357.088L299.838 315.408L327.335 286.934Z" fill="white"/>
<path d="M342.998 357.088L341.609 358.527L343.047 359.916L344.437 358.477L342.998 357.088ZM299.838 315.408L298.399 314.019L297.01 315.458L298.448 316.847L299.838 315.408ZM370.495 328.613L369.057 327.224L341.559 355.699L342.998 357.088L344.437 358.477L371.934 330.003L370.495 328.613ZM342.998 357.088L344.387 355.649L301.227 313.97L299.838 315.408L298.448 316.847L341.609 358.527L342.998 357.088ZM299.838 315.408L301.276 316.798L328.774 288.323L327.335 286.934L325.896 285.545L298.399 314.019L299.838 315.408Z" fill="black" mask="url(#path-21-inside-10_2014_144)"/>
<mask id="path-23-inside-11_2014_144" fill="white">
<path d="M36.6465 5.83215L8.15918 35.3312L0 27.4513V0.00012207H30.6074L36.6465 5.83215Z"/>
</mask>
<path d="M36.6465 5.83215L8.15918 35.3312L0 27.4513V0.00012207H30.6074L36.6465 5.83215Z" fill="white"/>
<path d="M36.6465 5.83215L38.0852 7.22148L39.4745 5.78282L38.0358 4.39349L36.6465 5.83215ZM8.15918 35.3312L6.7698 36.7698L8.20847 38.1592L9.59785 36.7205L8.15918 35.3312ZM0 27.4513H-2V28.3002L-1.38938 28.8899L0 27.4513ZM0 0.00012207V-1.99988H-2V0.00012207H0ZM30.6074 0.00012207L31.9968 -1.43854L31.4155 -1.99988H30.6074V0.00012207ZM36.6465 5.83215L35.2078 4.44283L6.72051 33.9418L8.15918 35.3312L9.59785 36.7205L38.0852 7.22148L36.6465 5.83215ZM8.15918 35.3312L9.54856 33.8926L1.38938 26.0127L0 27.4513L-1.38938 28.8899L6.7698 36.7698L8.15918 35.3312ZM0 27.4513H2V0.00012207H0H-2V27.4513H0ZM0 0.00012207V2.00012H30.6074V0.00012207V-1.99988H0V0.00012207ZM30.6074 0.00012207L29.2181 1.43878L35.2571 7.27081L36.6465 5.83215L38.0358 4.39349L31.9968 -1.43854L30.6074 0.00012207Z" fill="black" mask="url(#path-23-inside-11_2014_144)"/>
<path d="M37.499 2.00012L27.999 12.0001L22.999 2.00012H37.499Z" fill="#FFFEFE"/>
</svg>
